<svg width="38" height="38" viewBox="0 0 38 38" fill="none" xmlns="http://www.w3.org/2000/svg">
<path fill-rule="evenodd" clip-rule="evenodd" d="M15.2415 4.51255C15.1859 4.51255 15.132 4.53208 15.0893 4.56775C15.0466 4.60341 15.0178 4.65293 15.0079 4.70768L14.0731 4.53822L15.0079 4.70768L13.9972 10.2822C13.9036 10.7985 13.4093 11.1411 12.893 11.0475C12.3767 10.9539 12.0341 10.4596 12.1277 9.9433L13.1383 4.36875C13.2277 3.87602 13.4871 3.43029 13.8715 3.10933C14.2559 2.78837 14.7408 2.61255 15.2415 2.61255H22.7584C23.2592 2.61255 23.744 2.78837 24.1284 3.10933C24.5128 3.43029 24.7723 3.87602 24.8616 4.36876L25.8722 9.94334C25.9658 10.4596 25.6232 10.954 25.1069 11.0476C24.5907 11.1412 24.0963 10.7985 24.0027 10.2823L22.9921 4.70768L23.9268 4.53822L22.9921 4.70768C22.9822 4.65293 22.9533 4.60341 22.9106 4.56775C22.8679 4.53208 22.814 4.51255 22.7584 4.51255H15.2415Z" fill="#17494D"/>
<path fill-rule="evenodd" clip-rule="evenodd" d="M22.7585 34.1002C22.8141 34.1002 22.868 34.0807 22.9107 34.045C22.9534 34.0094 22.9822 33.9599 22.9921 33.9051L23.9269 34.0746L22.9921 33.9051L24.0028 28.3306C24.0964 27.8143 24.5907 27.4717 25.107 27.5653C25.6233 27.6589 25.9659 28.1532 25.8723 28.6695L24.8617 34.244C24.7723 34.7368 24.5129 35.1825 24.1285 35.5035C23.7441 35.8244 23.2592 36.0002 22.7585 36.0002H15.2416C14.7408 36.0002 14.256 35.8244 13.8716 35.5035C13.4872 35.1825 13.2277 34.7368 13.1384 34.244L12.1278 28.6695C12.0342 28.1532 12.3768 27.6588 12.8931 27.5652C13.4093 27.4716 13.9037 27.8143 13.9973 28.3305L15.0079 33.9051L14.0732 34.0746L15.0079 33.9051C15.0178 33.9599 15.0467 34.0094 15.0894 34.045C15.1321 34.0807 15.186 34.1002 15.2416 34.1002H22.7585Z" fill="#17494D"/>
<path fill-rule="evenodd" clip-rule="evenodd" d="M7.3623 19C7.3623 12.5728 12.5726 7.36255 18.9998 7.36255C25.427 7.36255 30.6373 12.5728 30.6373 19C30.6373 25.4273 25.427 30.6375 18.9998 30.6375C12.5726 30.6375 7.3623 25.4273 7.3623 19Z" fill="url(#paint0_linear_134_689)"/>
<path fill-rule="evenodd" clip-rule="evenodd" d="M18.9998 9.26255C13.6219 9.26255 9.2623 13.6222 9.2623 19C9.2623 24.3779 13.6219 28.7375 18.9998 28.7375C24.3777 28.7375 28.7373 24.3779 28.7373 19C28.7373 13.6222 24.3777 9.26255 18.9998 9.26255ZM7.3623 19C7.3623 12.5728 12.5726 7.36255 18.9998 7.36255C25.427 7.36255 30.6373 12.5728 30.6373 19C30.6373 25.4273 25.427 30.6375 18.9998 30.6375C12.5726 30.6375 7.3623 25.4273 7.3623 19Z" fill="#17494D"/>
<path fill-rule="evenodd" clip-rule="evenodd" d="M18.9998 12.1125C19.5245 12.1125 19.9498 12.5379 19.9498 13.0625V18.05H24.9373C25.462 18.05 25.8873 18.4754 25.8873 19C25.8873 19.5247 25.462 19.95 24.9373 19.95H18.9998C18.4751 19.95 18.0498 19.5247 18.0498 19V13.0625C18.0498 12.5379 18.4751 12.1125 18.9998 12.1125Z" fill="#17494D"/>
<defs>
<linearGradient id="paint0_linear_134_689" x1="15.7672" y1="1.6731" x2="21.6854" y2="31.2642" gradientUnits="userSpaceOnUse">
<stop stop-color="white" stop-opacity="0"/>
<stop offset="1" stop-color="#FF8C4B"/>
</linearGradient>
</defs>
</svg>
