<svg width="20" height="37" viewBox="0 0 20 37" fill="none" xmlns="http://www.w3.org/2000/svg">
<mask id="mask0_134_455" style="mask-type:alpha" maskUnits="userSpaceOnUse" x="0" y="8" width="20" height="29">
<path d="M0.800158 19.1246C0.16757 13.4313 4.62415 8.45215 10.3525 8.45215C16.0808 8.45215 20.5374 13.4313 19.9048 19.1246L18.2275 34.2199C18.1108 35.27 17.2232 36.0645 16.1666 36.0645H4.53837C3.48175 36.0645 2.59409 35.27 2.47741 34.2199L0.800158 19.1246Z" fill="#17494D"/>
</mask>
<g mask="url(#mask0_134_455)">
<path d="M9.5 22L1.5 25L2.5 29L4 35.5H15.5L17.5 34.5L18.5 26.5L19.5 19L18 13.5L16.5 13L14.5 17.5L12.5 20.5L9.5 22Z" fill="url(#paint0_linear_134_455)"/>
<path fill-rule="evenodd" clip-rule="evenodd" d="M16.7029 34.0505L18.3801 18.9552C18.9118 14.1706 15.1665 9.98617 10.3525 9.98617C5.53844 9.98617 1.79318 14.1706 2.3248 18.9552L4.00205 34.0505C4.03241 34.3237 4.26341 34.5305 4.53837 34.5305H16.1666C16.4415 34.5305 16.6725 34.3237 16.7029 34.0505ZM10.3525 8.45215C4.62415 8.45215 0.16757 13.4313 0.800158 19.1246L2.47741 34.2199C2.59409 35.27 3.48175 36.0645 4.53837 36.0645H16.1666C17.2232 36.0645 18.1108 35.27 18.2275 34.2199L19.9048 19.1246C20.5374 13.4313 16.0808 8.45215 10.3525 8.45215Z" fill="#17494D"/>
<path fill-rule="evenodd" clip-rule="evenodd" d="M16.7379 0.132694L18.1275 2.51758C19.1911 4.34306 20.8184 7.16125 22.2438 9.68385C22.9563 10.9448 23.6201 12.135 24.1383 13.0915C24.6443 14.0254 25.0419 14.7913 25.1919 15.1689C25.2604 15.3414 25.2819 15.5179 25.2913 15.6406C25.3019 15.778 25.3024 15.928 25.2971 16.0816C25.2865 16.3893 25.2508 16.7679 25.197 17.1965C25.089 18.0566 24.9002 19.1813 24.6566 20.4694C24.1688 23.0491 23.4519 26.3332 22.6918 29.5707C21.9317 32.8087 21.1257 36.011 20.4585 38.428C20.1254 39.6345 19.8239 40.6564 19.5778 41.3925C19.4557 41.7577 19.3411 42.071 19.238 42.3069C19.1876 42.4223 19.1295 42.5433 19.064 42.6498C19.0316 42.7027 18.985 42.7722 18.9234 42.8413C18.8732 42.8977 18.7507 43.0259 18.5525 43.1046C18.3987 43.1657 18.2495 43.1792 18.1794 43.1845C18.0885 43.1913 17.9924 43.192 17.8997 43.1899C17.7132 43.1857 17.4844 43.1691 17.2289 43.1445C16.7149 43.0948 16.0357 43.0071 15.2534 42.8945C13.6856 42.6691 11.6602 42.3381 9.62006 41.9945C8.39181 41.7877 7.15184 41.5752 6.00101 41.3779C5.242 41.2479 4.52176 41.1244 3.86922 41.0136C2.19564 40.7295 1.01267 40.5369 0.677068 40.5081C0.277451 40.4737 -0.0849776 40.2545 -0.338405 40.0764C-0.625313 39.8748 -0.933274 39.6072 -1.24686 39.3061C-1.87647 38.7014 -2.60026 37.8917 -3.33098 37.0184C-4.79598 35.2676 -6.34655 33.1917 -7.32808 31.8136L-7.74614 31.2266L-7.24947 30.7044C-7.08856 30.5352 -6.9221 30.3563 -6.74803 30.1693C-5.73296 29.0785 -4.45907 27.7096 -2.51736 26.364C-0.23367 24.7814 2.9488 23.2417 7.75485 22.0853C12.05 21.0519 14.1024 17.9571 15.1612 14.1985C15.98 11.2919 16.1684 8.1329 16.3334 5.36587C16.3855 4.49235 16.4353 3.6579 16.5018 2.88277L16.7379 0.132694ZM18.0558 5.87889C17.8939 8.56527 17.6629 11.7632 16.8434 14.6724C15.6877 18.7749 13.3013 22.5484 8.16369 23.7845C3.53696 24.8977 0.5599 26.3577 -1.52187 27.8005C-3.29747 29.031 -4.44014 30.257 -5.45314 31.344C-5.46444 31.3561 -5.47573 31.3682 -5.487 31.3803C-4.53223 32.6961 -3.22569 34.4209 -1.99064 35.8968C-1.27549 36.7515 -0.59865 37.5054 -0.0362683 38.0456C0.24615 38.3168 0.482032 38.5169 0.666387 38.6464C0.790652 38.7338 0.855828 38.7632 0.871453 38.771C1.33973 38.8175 2.5926 39.0242 4.16175 39.2906C4.8204 39.4024 5.54248 39.5262 6.30188 39.6563C7.44949 39.853 8.68233 40.0643 9.9103 40.2711C11.949 40.6145 13.9567 40.9424 15.5021 41.1647C16.2763 41.276 16.9236 41.3592 17.3968 41.4049C17.515 41.4163 17.619 41.425 17.7088 41.4312C17.7685 41.2782 17.8392 41.0808 17.9203 40.8383C18.1516 40.1463 18.4435 39.1593 18.7738 37.9629C19.4333 35.5741 20.2336 32.3948 20.9904 29.1713C21.7473 25.9473 22.458 22.6901 22.9394 20.1447C23.1804 18.8701 23.3616 17.7862 23.4629 16.9788C23.5138 16.5736 23.5425 16.2538 23.5504 16.0216C23.5544 15.9052 23.5527 15.8249 23.5488 15.7746C23.5486 15.7718 23.5484 15.7691 23.5481 15.7667C23.426 15.479 23.0959 14.8362 22.6017 13.9241C22.0906 12.9808 21.4326 11.8009 20.7222 10.5436C19.8508 9.00152 18.9032 7.34756 18.0558 5.87889ZM23.5449 15.7393C23.5449 15.7392 23.5452 15.7403 23.5455 15.7427C23.5451 15.7405 23.5449 15.7393 23.5449 15.7393ZM18.0488 41.4417C18.0483 41.4417 18.0478 41.4418 18.0473 41.4418C18.0596 41.4401 18.0613 41.4408 18.0488 41.4417Z" fill="#17494D"/>
<path fill-rule="evenodd" clip-rule="evenodd" d="M15.691 23.1359C16.1125 23.1781 16.42 23.554 16.3778 23.9755L15.6108 29.8979C15.5687 30.3194 15.1928 30.6269 14.7713 30.5848C14.3498 30.5426 14.0423 30.1668 14.0844 29.7452L14.8514 23.8228C14.8936 23.4013 15.2695 23.0938 15.691 23.1359Z" fill="#17494D"/>
</g>
<path fill-rule="evenodd" clip-rule="evenodd" d="M8.39002 6.15121C8.05988 6.15121 7.76677 6.36247 7.66237 6.67567L6.91597 8.91487C7.01156 8.89401 7.11046 8.8729 7.21206 8.85179C8.14387 8.65816 9.35858 8.45224 10.3524 8.45224C11.3462 8.45224 12.5609 8.65816 13.4927 8.85179C13.5943 8.8729 13.6932 8.89401 13.7888 8.91487L13.0424 6.67567C12.938 6.36247 12.6449 6.15121 12.3148 6.15121H8.39002ZM14.7504 10.7256L14.7444 10.724L14.7229 10.7181C14.7035 10.7129 14.6742 10.7051 14.636 10.695C14.5595 10.6748 14.4472 10.6458 14.3065 10.6107C14.0246 10.5406 13.6301 10.4471 13.1806 10.3537C12.2669 10.1638 11.1806 9.98626 10.3524 9.98626C9.52421 9.98626 8.4379 10.1638 7.52417 10.3537C7.07467 10.4471 6.68016 10.5406 6.39833 10.6107C6.25757 10.6458 6.14532 10.6748 6.06883 10.695C6.0306 10.7051 6.00133 10.7129 5.98194 10.7181L5.96038 10.724L5.95435 10.7256L4.56787 11.1082L6.20707 6.19057C6.52027 5.25096 7.39959 4.61719 8.39002 4.61719H12.3148C13.3052 4.61719 14.1845 5.25096 14.4977 6.19057L16.1369 11.1082L14.7504 10.7256Z" fill="#17494D"/>
<path d="M8.81836 2.31612V6.15118H11.8864V2.31612C11.8864 1.46891 11.1996 0.782104 10.3524 0.782104C9.50516 0.782104 8.81836 1.46891 8.81836 2.31612Z" fill="#17494D"/>
<path d="M11.4876 1.31843L11.8867 2.31613L3.45889 2.64028C2.65544 2.67118 2.0203 1.96668 2.134 1.17072C2.22769 0.514895 2.80348 0.0370324 3.46534 0.0658087L10.13 0.355575C10.7324 0.38177 11.2637 0.758519 11.4876 1.31843Z" fill="#17494D"/>
<path d="M15.2313 32.1227C15.2313 32.5463 14.8879 32.8897 14.4643 32.8897C14.0407 32.8897 13.6973 32.5463 13.6973 32.1227C13.6973 31.6991 14.0407 31.3557 14.4643 31.3557C14.8879 31.3557 15.2313 31.6991 15.2313 32.1227Z" fill="#17494D"/>
<defs>
<linearGradient id="paint0_linear_134_455" x1="10" y1="10.5" x2="14" y2="35" gradientUnits="userSpaceOnUse">
<stop stop-color="white" stop-opacity="0"/>
<stop offset="1" stop-color="#17494D" stop-opacity="0.57"/>
</linearGradient>
</defs>
</svg>
