<svg width="24" height="24" viewBox="0 0 24 24" fill="none" xmlns="http://www.w3.org/2000/svg">
<path d="M5.26904 9.74994L6.26904 9.74995L6.26904 9.74855L5.26904 9.74994ZM12.0514 3.00013L12.0589 2.00016L12.0576 2.00015L12.0514 3.00013ZM20.0529 16.871L19.1883 17.3734L19.1901 17.3764L20.0529 16.871ZM19.4078 17.9999V18.9999L19.4103 18.9999L19.4078 17.9999ZM4.59222 17.9999L4.58965 18.9999H4.59222V17.9999ZM3.94716 16.8709L4.80992 17.3765L4.81171 17.3734L3.94716 16.8709ZM5.26904 10.4999L4.26904 10.4999V10.4999H5.26904ZM6.26904 9.74855C6.26798 8.99102 6.41687 8.24077 6.70712 7.54105L4.85974 6.77475C4.46837 7.71825 4.26762 8.72989 4.26904 9.75134L6.26904 9.74855ZM6.70712 7.54105C6.99736 6.84133 7.42323 6.20597 7.96018 5.67161L6.54937 4.25399C5.82536 4.97453 5.25112 5.83124 4.85974 6.77475L6.70712 7.54105ZM7.96018 5.67161C8.49712 5.13724 9.13452 4.71443 9.83563 4.42756L9.07823 2.57652C8.13285 2.96334 7.27338 3.53346 6.54937 4.25399L7.96018 5.67161ZM9.83563 4.42756C10.5367 4.14068 11.2877 3.99541 12.0452 4.00011L12.0576 2.00015C11.0362 1.99381 10.0236 2.18969 9.07823 2.57652L9.83563 4.42756ZM12.044 4.0001C15.1873 4.02347 17.7317 6.64306 17.7317 9.83468H19.7317C19.7317 5.58245 16.3386 2.03197 12.0589 2.00016L12.044 4.0001ZM17.7317 9.83468V10.4999H19.7317V9.83468H17.7317ZM17.7317 10.4999C17.7317 13.9987 18.4646 16.1279 19.1883 17.3734L20.9176 16.3687C20.4038 15.4843 19.7317 13.7166 19.7317 10.4999H17.7317ZM19.1901 17.3764C19.1678 17.3385 19.156 17.2954 19.1558 17.2514L21.1557 17.2407C21.1541 16.933 21.0713 16.6311 20.9158 16.3656L19.1901 17.3764ZM19.1558 17.2514C19.1555 17.2074 19.1669 17.1641 19.1887 17.1259L20.9252 18.1183C21.0779 17.8511 21.1574 17.5484 21.1557 17.2407L19.1558 17.2514ZM19.1887 17.1259C19.2105 17.0878 19.2421 17.056 19.2801 17.0339L20.2861 18.7624C20.5521 18.6077 20.7725 18.3855 20.9252 18.1183L19.1887 17.1259ZM19.2801 17.0339C19.3181 17.0118 19.3612 17.0001 19.4052 16.9999L19.4103 18.9999C19.7181 18.9992 20.0201 18.9172 20.2861 18.7624L19.2801 17.0339ZM19.4078 16.9999H4.59222V18.9999H19.4078V16.9999ZM4.5948 16.9999C4.63878 17.0001 4.68196 17.0118 4.71996 17.0339L3.71381 18.7624C3.97978 18.9172 4.28189 18.9991 4.58965 18.9999L4.5948 16.9999ZM4.71996 17.0339C4.75797 17.056 4.78948 17.0878 4.8113 17.126L3.07473 18.1181C3.22739 18.3853 3.44784 18.6076 3.71381 18.7624L4.71996 17.0339ZM4.8113 17.126C4.83312 17.1642 4.84448 17.2074 4.84423 17.2514L2.84426 17.2404C2.84256 17.5481 2.92206 17.8509 3.07473 18.1181L4.8113 17.126ZM4.84423 17.2514C4.84399 17.2954 4.83215 17.3385 4.80991 17.3765L3.08441 16.3652C2.9288 16.6308 2.84597 16.9326 2.84426 17.2404L4.84423 17.2514ZM4.81171 17.3734C5.53574 16.1279 6.26904 13.9986 6.26904 10.4999H4.26904C4.26904 13.7164 3.5967 15.4839 3.08262 16.3683L4.81171 17.3734ZM6.26904 10.4999L6.26904 9.74995L4.26904 9.74994L4.26904 10.4999L6.26904 10.4999Z" fill="#13101E"/>
<path d="M9 18V18.75C9 19.5456 9.31607 20.3087 9.87868 20.8713C10.4413 21.4339 11.2044 21.75 12 21.75C12.7956 21.75 13.5587 21.4339 14.1213 20.8713C14.6839 20.3087 15 19.5456 15 18.75V18" stroke="#13101E" stroke-width="2" stroke-linecap="round" stroke-linejoin="round"/>
</svg>
