<svg width="24" height="24" viewBox="0 0 24 24" fill="none" xmlns="http://www.w3.org/2000/svg">
<path d="M14.0333 7.2C14.0333 7.64183 14.3915 8 14.8333 8C15.2752 8 15.6333 7.64183 15.6333 7.2H14.0333ZM7.36667 7.2C7.36667 7.64183 7.72484 8 8.16667 8C8.60849 8 8.96667 7.64183 8.96667 7.2H7.36667ZM13.9233 4.17439L14.2748 3.45575L13.9233 4.17439ZM14.6517 4.87362L13.945 5.24867V5.24867L14.6517 4.87362ZM9.07668 4.17439L8.72517 3.45575L9.07668 4.17439ZM8.34832 4.87362L7.64169 4.49856V4.49856L8.34832 4.87362ZM10.6333 11.6C10.6333 11.1582 10.2752 10.8 9.83333 10.8C9.39151 10.8 9.03333 11.1582 9.03333 11.6H10.6333ZM9.03333 15.6C9.03333 16.0418 9.39151 16.4 9.83333 16.4C10.2752 16.4 10.6333 16.0418 10.6333 15.6H9.03333ZM13.9667 11.6C13.9667 11.1582 13.6085 10.8 13.1667 10.8C12.7248 10.8 12.3667 11.1582 12.3667 11.6H13.9667ZM12.3667 15.6C12.3667 16.0418 12.7248 16.4 13.1667 16.4C13.6085 16.4 13.9667 16.0418 13.9667 15.6H12.3667ZM4 6.4C3.55817 6.4 3.2 6.75817 3.2 7.2C3.2 7.64183 3.55817 8 4 8V6.4ZM19 8C19.4418 8 19.8 7.64183 19.8 7.2C19.8 6.75817 19.4418 6.4 19 6.4V8ZM18.1333 7.2C18.1333 6.75817 17.7752 6.4 17.3333 6.4C16.8915 6.4 16.5333 6.75817 16.5333 7.2H18.1333ZM6.46667 7.2C6.46667 6.75817 6.10849 6.4 5.66667 6.4C5.22484 6.4 4.86667 6.75817 4.86667 7.2H6.46667ZM7.03169 19.7384L7.38321 19.0198L7.38321 19.0198L7.03169 19.7384ZM5.93915 18.6896L5.23251 19.0646H5.23251L5.93915 18.6896ZM17.0608 18.6896L16.3542 18.3145L17.0608 18.6896ZM15.9683 19.7384L15.6168 19.0198H15.6168L15.9683 19.7384ZM10.8333 4.8H12.1667V3.2H10.8333V4.8ZM14.0333 6.56V7.2H15.6333V6.56H14.0333ZM8.96667 7.2V6.56H7.36667V7.2H8.96667ZM12.1667 4.8C12.6461 4.8 12.9594 4.80057 13.1988 4.81935C13.4297 4.83746 13.5222 4.86875 13.5718 4.89302L14.2748 3.45575C13.9679 3.30564 13.6488 3.24973 13.3239 3.22425C13.0074 3.19943 12.6207 3.2 12.1667 3.2V4.8ZM15.6333 6.56C15.6333 6.1257 15.634 5.74987 15.6077 5.44128C15.5806 5.12235 15.5205 4.80409 15.3583 4.49856L13.945 5.24867C13.9645 5.2854 13.9952 5.36229 14.0135 5.57696C14.0327 5.80198 14.0333 6.09821 14.0333 6.56H15.6333ZM13.5718 4.89302C13.7377 4.97417 13.8664 5.10057 13.945 5.24867L15.3583 4.49856C15.1173 4.04454 14.7362 3.68141 14.2748 3.45575L13.5718 4.89302ZM10.8333 3.2C10.3793 3.2 9.99258 3.19943 9.67611 3.22425C9.35123 3.24973 9.03207 3.30564 8.72517 3.45575L9.4282 4.89302C9.47782 4.86875 9.57027 4.83746 9.80123 4.81935C10.0406 4.80057 10.3539 4.8 10.8333 4.8V3.2ZM8.96667 6.56C8.96667 6.09821 8.96734 5.80198 8.98649 5.57696C9.00476 5.36229 9.03547 5.2854 9.05496 5.24867L7.64169 4.49856C7.47952 4.80409 7.4194 5.12235 7.39226 5.44128C7.36599 5.74987 7.36667 6.1257 7.36667 6.56H8.96667ZM8.72517 3.45575C8.26385 3.68141 7.88266 4.04454 7.64169 4.49856L9.05496 5.24867C9.13356 5.10057 9.26231 4.97417 9.4282 4.89302L8.72517 3.45575ZM9.03333 11.6V15.6H10.6333V11.6H9.03333ZM12.3667 11.6V15.6H13.9667V11.6H12.3667ZM4 8H19V6.4H4V8ZM16.5333 7.2V16.16H18.1333V7.2H16.5333ZM13.3333 19.2H9.66667V20.8H13.3333V19.2ZM6.46667 16.16V7.2H4.86667V16.16H6.46667ZM9.66667 19.2C8.95392 19.2 8.46556 19.1994 8.08723 19.1698C7.71732 19.1407 7.52196 19.0877 7.38321 19.0198L6.68017 20.4571C7.0762 20.6508 7.49827 20.7285 7.96212 20.7649C8.41754 20.8006 8.97928 20.8 9.66667 20.8V19.2ZM4.86667 16.16C4.86667 16.8183 4.86599 17.3622 4.90361 17.8042C4.94211 18.2565 5.02494 18.6735 5.23251 19.0646L6.64579 18.3145C6.58088 18.1922 6.52747 18.0165 6.49785 17.6685C6.46734 17.3101 6.46667 16.8458 6.46667 16.16H4.86667ZM7.38321 19.0198C7.06052 18.8619 6.80428 18.6131 6.64579 18.3145L5.23251 19.0646C5.55338 19.6692 6.06205 20.1547 6.68017 20.4571L7.38321 19.0198ZM16.5333 16.16C16.5333 16.8458 16.5327 17.3101 16.5022 17.6685C16.4725 18.0165 16.4191 18.1922 16.3542 18.3145L17.7675 19.0646C17.9751 18.6735 18.0579 18.2565 18.0964 17.8042C18.134 17.3622 18.1333 16.8183 18.1333 16.16H16.5333ZM13.3333 20.8C14.0207 20.8 14.5825 20.8006 15.0379 20.7649C15.5017 20.7285 15.9238 20.6508 16.3198 20.4571L15.6168 19.0198C15.478 19.0877 15.2827 19.1407 14.9128 19.1698C14.5344 19.1994 14.0461 19.2 13.3333 19.2V20.8ZM16.3542 18.3145C16.1957 18.6131 15.9395 18.8619 15.6168 19.0198L16.3198 20.4571C16.9379 20.1547 17.4466 19.6692 17.7675 19.0646L16.3542 18.3145Z" fill="#13101E"/>
</svg>
