<svg width="24" height="24" viewBox="0 0 24 24" fill="none" xmlns="http://www.w3.org/2000/svg">
<path d="M15 6C15 6.55228 15.4477 7 16 7C16.5523 7 17 6.55228 17 6H15ZM7 6C7 6.55228 7.44772 7 8 7C8.55228 7 9 6.55228 9 6H7ZM14.908 2.21799L15.362 1.32698L14.908 2.21799ZM15.782 3.09202L14.891 3.54601V3.54601L15.782 3.09202ZM9.09202 2.21799L8.63803 1.32698V1.32698L9.09202 2.21799ZM8.21799 3.09202L7.32698 2.63803V2.63803L8.21799 3.09202ZM11 11.5C11 10.9477 10.5523 10.5 10 10.5C9.44772 10.5 9 10.9477 9 11.5H11ZM9 16.5C9 17.0523 9.44772 17.5 10 17.5C10.5523 17.5 11 17.0523 11 16.5H9ZM15 11.5C15 10.9477 14.5523 10.5 14 10.5C13.4477 10.5 13 10.9477 13 11.5H15ZM13 16.5C13 17.0523 13.4477 17.5 14 17.5C14.5523 17.5 15 17.0523 15 16.5H13ZM3 5C2.44772 5 2 5.44772 2 6C2 6.55228 2.44772 7 3 7V5ZM21 7C21.5523 7 22 6.55228 22 6C22 5.44772 21.5523 5 21 5V7ZM20 6C20 5.44772 19.5523 5 19 5C18.4477 5 18 5.44772 18 6H20ZM6 6C6 5.44772 5.55228 5 5 5C4.44772 5 4 5.44772 4 6H6ZM6.63803 21.673L7.09202 20.782H7.09202L6.63803 21.673ZM5.32698 20.362L4.43597 20.816H4.43597L5.32698 20.362ZM18.673 20.362L17.782 19.908L18.673 20.362ZM17.362 21.673L16.908 20.782H16.908L17.362 21.673ZM11.2 3H12.8V1H11.2V3ZM15 5.2V6H17V5.2H15ZM9 6V5.2H7V6H9ZM12.8 3C13.3766 3 13.7488 3.00078 14.0322 3.02393C14.3038 3.04612 14.4045 3.0838 14.454 3.10899L15.362 1.32698C14.9836 1.13419 14.5904 1.06287 14.195 1.03057C13.8114 0.999222 13.3436 1 12.8 1V3ZM17 5.2C17 4.65645 17.0008 4.18864 16.9694 3.80497C16.9371 3.40963 16.8658 3.01641 16.673 2.63803L14.891 3.54601C14.9162 3.59545 14.9539 3.69617 14.9761 3.96784C14.9992 4.25117 15 4.62345 15 5.2H17ZM14.454 3.10899C14.6422 3.20487 14.7951 3.35785 14.891 3.54601L16.673 2.63803C16.3854 2.07354 15.9265 1.6146 15.362 1.32698L14.454 3.10899ZM11.2 1C10.6564 1 10.1886 0.999222 9.80497 1.03057C9.40963 1.06287 9.01641 1.13419 8.63803 1.32698L9.54601 3.10899C9.59545 3.0838 9.69617 3.04612 9.96784 3.02393C10.2512 3.00078 10.6234 3 11.2 3V1ZM9 5.2C9 4.62345 9.00078 4.25117 9.02393 3.96784C9.04612 3.69617 9.0838 3.59545 9.10899 3.54601L7.32698 2.63803C7.13419 3.01641 7.06287 3.40963 7.03057 3.80497C6.99922 4.18864 7 4.65645 7 5.2H9ZM8.63803 1.32698C8.07354 1.6146 7.6146 2.07354 7.32698 2.63803L9.10899 3.54601C9.20487 3.35785 9.35785 3.20487 9.54601 3.10899L8.63803 1.32698ZM9 11.5V16.5H11V11.5H9ZM13 11.5V16.5H15V11.5H13ZM3 7H21V5H3V7ZM18 6V17.2H20V6H18ZM14.2 21H9.8V23H14.2V21ZM6 17.2V6H4V17.2H6ZM9.8 21C8.94342 21 8.36113 20.9992 7.91104 20.9624C7.47262 20.9266 7.24842 20.8617 7.09202 20.782L6.18404 22.564C6.66937 22.8113 7.18608 22.9099 7.74817 22.9558C8.2986 23.0008 8.97642 23 9.8 23V21ZM4 17.2C4 18.0236 3.99922 18.7014 4.04419 19.2518C4.09012 19.8139 4.18868 20.3306 4.43597 20.816L6.21799 19.908C6.1383 19.7516 6.07337 19.5274 6.03755 19.089C6.00078 18.6389 6 18.0566 6 17.2H4ZM7.09202 20.782C6.71569 20.5903 6.40973 20.2843 6.21799 19.908L4.43597 20.816C4.81947 21.5686 5.43139 22.1805 6.18404 22.564L7.09202 20.782ZM18 17.2C18 18.0566 17.9992 18.6389 17.9624 19.089C17.9266 19.5274 17.8617 19.7516 17.782 19.908L19.564 20.816C19.8113 20.3306 19.9099 19.8139 19.9558 19.2518C20.0008 18.7014 20 18.0236 20 17.2H18ZM14.2 23C15.0236 23 15.7014 23.0008 16.2518 22.9558C16.8139 22.9099 17.3306 22.8113 17.816 22.564L16.908 20.782C16.7516 20.8617 16.5274 20.9266 16.089 20.9624C15.6389 20.9992 15.0566 21 14.2 21V23ZM17.782 19.908C17.5903 20.2843 17.2843 20.5903 16.908 20.782L17.816 22.564C18.5686 22.1805 19.1805 21.5686 19.564 20.816L17.782 19.908Z" fill="#13101E"/>
</svg>
