<svg width="24" height="24" viewBox="0 0 24 24" fill="none" xmlns="http://www.w3.org/2000/svg">
<path d="M12 21L11.168 21.5547C11.3534 21.8329 11.6656 22 12 22C12.3344 22 12.6466 21.8329 12.832 21.5547L12 21ZM11.8999 20.8499L11.0679 21.4046H11.0679L11.8999 20.8499ZM10.3991 18.9098L9.76414 19.6824L10.3991 18.9098ZM9.02161 18.1726L8.73102 19.1295L9.02161 18.1726ZM2.21799 16.908L3.10899 16.454L2.21799 16.908ZM3.09202 17.782L3.54601 16.891L3.09202 17.782ZM9.81596 3.43597L9.36197 4.32698L9.81596 3.43597ZM11.564 5.18404L10.673 5.63803L11.564 5.18404ZM3.09202 3.21799L3.54601 4.10899L3.09202 3.21799ZM2.21799 4.09202L3.10899 4.54601L2.21799 4.09202ZM12.1001 20.8499L12.9321 21.4046H12.9321L12.1001 20.8499ZM13.6009 18.9098L14.2359 19.6824L13.6009 18.9098ZM14.9784 18.1726L15.269 19.1295L14.9784 18.1726ZM21.782 16.908L20.891 16.454L21.782 16.908ZM20.908 17.782L20.454 16.891L20.908 17.782ZM14.184 3.43597L14.638 4.32698L14.184 3.43597ZM12.436 5.18404L13.327 5.63803L12.436 5.18404ZM20.908 3.21799L20.454 4.10899L20.908 3.21799ZM21.782 4.09202L20.891 4.54601L21.782 4.09202ZM5.2 4H5.6V2H5.2V4ZM3 14.8V6.2H1V14.8H3ZM12.832 20.4453L12.732 20.2952L11.0679 21.4046L11.168 21.5547L12.832 20.4453ZM6.57482 17H5.2V19H6.57482V17ZM12.732 20.2952C12.0719 19.3051 11.6347 18.631 11.0341 18.1373L9.76414 19.6824C10.0812 19.943 10.3387 20.3108 11.0679 21.4046L12.732 20.2952ZM6.57482 19C7.88937 19 8.3383 19.0102 8.73102 19.1295L9.31219 17.2158C8.5682 16.9898 7.76484 17 6.57482 17V19ZM11.0341 18.1373C10.5263 17.7199 9.94114 17.4068 9.31219 17.2158L8.73102 19.1295C9.10839 19.2441 9.45946 19.4319 9.76414 19.6824L11.0341 18.1373ZM1 14.8C1 15.3436 0.999222 15.8114 1.03057 16.195C1.06287 16.5904 1.13419 16.9836 1.32698 17.362L3.10899 16.454C3.0838 16.4045 3.04612 16.3038 3.02393 16.0322C3.00078 15.7488 3 15.3766 3 14.8H1ZM5.2 17C4.62345 17 4.25117 16.9992 3.96784 16.9761C3.69617 16.9539 3.59545 16.9162 3.54601 16.891L2.63803 18.673C3.01641 18.8658 3.40963 18.9371 3.80497 18.9694C4.18864 19.0008 4.65645 19 5.2 19V17ZM1.32698 17.362C1.6146 17.9265 2.07354 18.3854 2.63803 18.673L3.54601 16.891C3.35785 16.7951 3.20487 16.6422 3.10899 16.454L1.32698 17.362ZM5.6 4C6.73661 4 7.52892 4.00078 8.14576 4.05118C8.75093 4.10062 9.09862 4.19279 9.36197 4.32698L10.27 2.54497C9.67766 2.24318 9.03747 2.11737 8.30862 2.05782C7.59145 1.99922 6.7036 2 5.6 2V4ZM13 9.4C13 8.2964 13.0008 7.40855 12.9422 6.69138C12.8826 5.96253 12.7568 5.32234 12.455 4.73005L10.673 5.63803C10.8072 5.90138 10.8994 6.24907 10.9488 6.85424C10.9992 7.47108 11 8.26339 11 9.4H13ZM9.36197 4.32698C9.92646 4.6146 10.3854 5.07354 10.673 5.63803L12.455 4.73005C11.9757 3.78924 11.2108 3.02433 10.27 2.54497L9.36197 4.32698ZM5.2 2C4.65645 2 4.18864 1.99922 3.80497 2.03057C3.40963 2.06287 3.01641 2.13419 2.63803 2.32698L3.54601 4.10899C3.59545 4.0838 3.69617 4.04612 3.96784 4.02393C4.25117 4.00078 4.62345 4 5.2 4V2ZM3 6.2C3 5.62345 3.00078 5.25117 3.02393 4.96784C3.04612 4.69617 3.0838 4.59545 3.10899 4.54601L1.32698 3.63803C1.13419 4.01641 1.06287 4.40963 1.03057 4.80497C0.999222 5.18864 1 5.65645 1 6.2H3ZM2.63803 2.32698C2.07354 2.6146 1.6146 3.07354 1.32698 3.63803L3.10899 4.54601C3.20487 4.35785 3.35785 4.20487 3.54601 4.10899L2.63803 2.32698ZM18.8 2H18.4V4H18.8V2ZM11 9.4V21H13V9.4H11ZM23 14.8V6.2H21V14.8H23ZM12.832 21.5547L12.9321 21.4046L11.268 20.2952L11.168 20.4453L12.832 21.5547ZM17.4252 19H18.8V17H17.4252V19ZM12.9321 21.4046C13.6613 20.3108 13.9188 19.943 14.2359 19.6824L12.9659 18.1373C12.3653 18.631 11.9281 19.3051 11.268 20.2952L12.9321 21.4046ZM17.4252 17C16.2352 17 15.4318 16.9898 14.6878 17.2158L15.269 19.1295C15.6617 19.0102 16.1106 19 17.4252 19V17ZM14.2359 19.6824C14.5405 19.4319 14.8916 19.2441 15.269 19.1295L14.6878 17.2158C14.0589 17.4068 13.4737 17.7199 12.9659 18.1373L14.2359 19.6824ZM21 14.8C21 15.3766 20.9992 15.7488 20.9761 16.0322C20.9539 16.3038 20.9162 16.4045 20.891 16.454L22.673 17.362C22.8658 16.9836 22.9371 16.5904 22.9694 16.195C23.0008 15.8114 23 15.3436 23 14.8H21ZM18.8 19C19.3436 19 19.8114 19.0008 20.195 18.9694C20.5904 18.9371 20.9836 18.8658 21.362 18.673L20.454 16.891C20.4045 16.9162 20.3038 16.9539 20.0322 16.9761C19.7488 16.9992 19.3766 17 18.8 17V19ZM20.891 16.454C20.7951 16.6422 20.6422 16.7951 20.454 16.891L21.362 18.673C21.9265 18.3854 22.3854 17.9265 22.673 17.362L20.891 16.454ZM18.4 2C17.2964 2 16.4086 1.99922 15.6914 2.05782C14.9625 2.11737 14.3223 2.24318 13.73 2.54497L14.638 4.32698C14.9014 4.19279 15.2491 4.10062 15.8542 4.05118C16.4711 4.00078 17.2634 4 18.4 4V2ZM13 9.4C13 8.26339 13.0008 7.47108 13.0512 6.85424C13.1006 6.24907 13.1928 5.90138 13.327 5.63803L11.545 4.73005C11.2432 5.32234 11.1174 5.96253 11.0578 6.69138C10.9992 7.40855 11 8.2964 11 9.4H13ZM13.73 2.54497C12.7892 3.02433 12.0243 3.78924 11.545 4.73005L13.327 5.63803C13.6146 5.07354 14.0735 4.6146 14.638 4.32698L13.73 2.54497ZM18.8 4C19.3766 4 19.7488 4.00078 20.0322 4.02393C20.3038 4.04612 20.4045 4.0838 20.454 4.10899L21.362 2.32698C20.9836 2.13419 20.5904 2.06287 20.195 2.03057C19.8114 1.99922 19.3436 2 18.8 2V4ZM23 6.2C23 5.65645 23.0008 5.18864 22.9694 4.80497C22.9371 4.40963 22.8658 4.01641 22.673 3.63803L20.891 4.54601C20.9162 4.59545 20.9539 4.69617 20.9761 4.96784C20.9992 5.25117 21 5.62345 21 6.2H23ZM20.454 4.10899C20.6422 4.20487 20.7951 4.35785 20.891 4.54601L22.673 3.63803C22.3854 3.07354 21.9265 2.6146 21.362 2.32698L20.454 4.10899Z" fill="#13101E"/>
</svg>
