<svg width="24" height="24" viewBox="0 0 24 24" fill="none" xmlns="http://www.w3.org/2000/svg">
<path d="M9.9 19.2L10.7 18.6V18.6L9.9 19.2ZM9.2815 18.4645L9.92224 17.6967L9.2815 18.4645ZM8.45951 18.0535L8.68926 17.0803L8.45951 18.0535ZM3.22836 16.1481L2.30448 16.5307L3.22836 16.1481ZM4.85195 17.7716L4.46927 18.6955L4.85195 17.7716ZM15.5405 18.0535L15.3107 17.0803L15.5405 18.0535ZM14.1 19.2L13.3 18.6L14.1 19.2ZM14.7185 18.4645L14.0778 17.6967L14.7185 18.4645ZM12.1812 21.6327L12.5437 22.5647L12.1812 21.6327ZM11.36 21.1467L10.56 21.7467L11.36 21.1467ZM11.8188 21.6327L11.4563 22.5647L11.8188 21.6327ZM20.7716 16.1481L21.6955 16.5307L20.7716 16.1481ZM19.1481 17.7716L19.5307 18.6955L19.1481 17.7716ZM19.362 3.32698L19.816 2.43597L19.362 3.32698ZM20.673 4.63803L21.564 4.18404L20.673 4.63803ZM4.63803 3.32698L4.18404 2.43597L4.63803 3.32698ZM3.32698 4.63803L2.43597 4.18404L3.32698 4.63803ZM11.9973 8.33059L11.2465 8.99114C11.4363 9.20693 11.7098 9.33059 11.9973 9.33059C12.2847 9.33059 12.5582 9.20693 12.748 8.99114L11.9973 8.33059ZM8.50568 11.2179L9.2868 10.5936L8.50568 11.2179ZM15.4888 11.2179L14.7077 10.5936L15.4888 11.2179ZM10.9719 13.6079L11.635 12.8594L10.9719 13.6079ZM11.7114 14.1385L11.4255 15.0968L11.7114 14.1385ZM13.0226 13.6079L13.6856 14.3565L13.0226 13.6079ZM12.2832 14.1385L11.9973 13.1802L12.2832 14.1385ZM7.8 4H16.2V2H7.8V4ZM20 7.8V13.5H22V7.8H20ZM13.3 18.6L11.84 20.5467L13.44 21.7467L14.9 19.8L13.3 18.6ZM4 13.5V7.8H2V13.5H4ZM12.16 20.5467L10.7 18.6L9.1 19.8L10.56 21.7467L12.16 20.5467ZM10.7 18.6C10.4356 18.2475 10.2114 17.9381 9.92224 17.6967L8.64075 19.2322C8.70913 19.2893 8.77806 19.3708 9.1 19.8L10.7 18.6ZM7.5 19C8.03656 19 8.14307 19.0063 8.22975 19.0268L8.68926 17.0803C8.32267 16.9937 7.9406 17 7.5 17V19ZM9.92224 17.6967C9.56467 17.3983 9.14254 17.1873 8.68926 17.0803L8.22975 19.0268C8.38085 19.0624 8.52156 19.1328 8.64075 19.2322L9.92224 17.6967ZM2 13.5C2 14.1852 1.99946 14.7492 2.03086 15.2095C2.06288 15.6788 2.13142 16.1129 2.30448 16.5307L4.15224 15.7654C4.09694 15.6319 4.0513 15.4409 4.02623 15.0734C4.00054 14.697 4 14.2126 4 13.5H2ZM7.5 17C6.78741 17 6.30304 16.9995 5.9266 16.9738C5.55915 16.9487 5.36813 16.9031 5.23463 16.8478L4.46927 18.6955C4.88708 18.8686 5.32118 18.9371 5.79046 18.9691C6.25077 19.0005 6.81477 19 7.5 19V17ZM2.30448 16.5307C2.71046 17.5108 3.48915 18.2895 4.46927 18.6955L5.23463 16.8478C4.74458 16.6448 4.35523 16.2554 4.15224 15.7654L2.30448 16.5307ZM16.5 17C16.0594 17 15.6773 16.9937 15.3107 17.0803L15.7702 19.0268C15.8569 19.0063 15.9634 19 16.5 19V17ZM14.9 19.8C15.2219 19.3707 15.2909 19.2893 15.3593 19.2322L14.0778 17.6967C13.7886 17.9381 13.5644 18.2475 13.3 18.6L14.9 19.8ZM15.3107 17.0803C14.8575 17.1873 14.4353 17.3983 14.0778 17.6967L15.3593 19.2322C15.4784 19.1328 15.6192 19.0624 15.7702 19.0268L15.3107 17.0803ZM11.84 20.5467C11.7842 20.621 11.7422 20.677 11.7057 20.724C11.669 20.7713 11.6477 20.7966 11.6356 20.8101C11.6234 20.8237 11.6328 20.8112 11.6606 20.7893C11.6918 20.7649 11.7449 20.7294 11.8188 20.7007L12.5437 22.5647C12.8244 22.4555 13.0106 22.2721 13.1226 22.1476C13.2304 22.0277 13.3426 21.8765 13.44 21.7467L11.84 20.5467ZM10.56 21.7467C10.6574 21.8765 10.7696 22.0277 10.8774 22.1476C10.9894 22.2721 11.1756 22.4555 11.4563 22.5647L12.1812 20.7007C12.2551 20.7294 12.3082 20.7649 12.3394 20.7893C12.3672 20.8112 12.3766 20.8237 12.3644 20.8101C12.3523 20.7966 12.331 20.7713 12.2943 20.724C12.2578 20.677 12.2158 20.621 12.16 20.5467L10.56 21.7467ZM11.8188 20.7007C11.9353 20.6553 12.0647 20.6553 12.1812 20.7007L11.4563 22.5647C11.806 22.7007 12.194 22.7007 12.5437 22.5647L11.8188 20.7007ZM20 13.5C20 14.2126 19.9995 14.697 19.9738 15.0734C19.9487 15.4409 19.9031 15.6319 19.8478 15.7654L21.6955 16.5307C21.8686 16.1129 21.9371 15.6788 21.9691 15.2095C22.0005 14.7492 22 14.1852 22 13.5H20ZM16.5 19C17.1852 19 17.7492 19.0005 18.2095 18.9691C18.6788 18.9371 19.1129 18.8686 19.5307 18.6955L18.7654 16.8478C18.6319 16.9031 18.4409 16.9487 18.0734 16.9738C17.697 16.9995 17.2126 17 16.5 17V19ZM19.8478 15.7654C19.6448 16.2554 19.2554 16.6448 18.7654 16.8478L19.5307 18.6955C20.5108 18.2895 21.2895 17.5108 21.6955 16.5307L19.8478 15.7654ZM16.2 4C17.0566 4 17.6389 4.00078 18.089 4.03755C18.5274 4.07337 18.7516 4.1383 18.908 4.21799L19.816 2.43597C19.3306 2.18868 18.8139 2.09012 18.2518 2.04419C17.7014 1.99922 17.0236 2 16.2 2V4ZM22 7.8C22 6.97642 22.0008 6.2986 21.9558 5.74817C21.9099 5.18608 21.8113 4.66937 21.564 4.18404L19.782 5.09202C19.8617 5.24842 19.9266 5.47262 19.9624 5.91104C19.9992 6.36113 20 6.94342 20 7.8H22ZM18.908 4.21799C19.2843 4.40973 19.5903 4.7157 19.782 5.09202L21.564 4.18404C21.1805 3.43139 20.5686 2.81947 19.816 2.43597L18.908 4.21799ZM7.8 2C6.97642 2 6.2986 1.99922 5.74817 2.04419C5.18608 2.09012 4.66937 2.18868 4.18404 2.43597L5.09202 4.21799C5.24842 4.1383 5.47262 4.07337 5.91104 4.03755C6.36113 4.00078 6.94342 4 7.8 4V2ZM4 7.8C4 6.94342 4.00078 6.36113 4.03755 5.91104C4.07337 5.47262 4.1383 5.24842 4.21799 5.09202L2.43597 4.18404C2.18868 4.66937 2.09012 5.18608 2.04419 5.74817C1.99922 6.2986 2 6.97642 2 7.8H4ZM4.18404 2.43597C3.43139 2.81947 2.81947 3.43139 2.43597 4.18404L4.21799 5.09202C4.40973 4.71569 4.71569 4.40973 5.09202 4.21799L4.18404 2.43597ZM12.748 7.67005C11.651 6.42314 9.708 6.00657 8.2229 7.24023L9.50086 8.77867C10.0198 8.3476 10.744 8.42005 11.2465 8.99114L12.748 7.67005ZM8.2229 7.24023C6.81039 8.41358 6.5904 10.4234 7.72455 11.8423L9.2868 10.5936C8.84718 10.0436 8.90932 9.27006 9.50086 8.77867L8.2229 7.24023ZM16.27 11.8423C17.3949 10.4349 17.2151 8.40654 15.7612 7.23165L14.5041 8.78725C15.0887 9.25958 15.1565 10.0321 14.7077 10.5936L16.27 11.8423ZM15.7612 7.23165C14.2692 6.0261 12.3509 6.41475 11.2465 7.67005L12.748 8.99114C13.2431 8.42845 13.9576 8.34558 14.5041 8.78725L15.7612 7.23165ZM7.72455 11.8423C8.25774 12.5094 9.47801 13.6206 10.3089 14.3565L11.635 12.8594C10.7614 12.0856 9.68947 11.0973 9.2868 10.5936L7.72455 11.8423ZM13.6856 14.3565C14.5165 13.6206 15.7368 12.5094 16.27 11.8423L14.7077 10.5936C14.3051 11.0973 13.2332 12.0856 12.3596 12.8594L13.6856 14.3565ZM10.3089 14.3565C10.5883 14.604 10.9515 14.9554 11.4255 15.0968L11.9973 13.1802C12.0451 13.1945 12.055 13.212 11.9941 13.1663C11.9198 13.1106 11.8228 13.0257 11.635 12.8594L10.3089 14.3565ZM12.3596 12.8594C12.1717 13.0257 12.0747 13.1106 12.0004 13.1663C11.9395 13.212 11.9495 13.1945 11.9973 13.1802L12.5691 15.0968C13.043 14.9554 13.4062 14.604 13.6856 14.3565L12.3596 12.8594ZM11.4255 15.0968C11.7931 15.2065 12.2014 15.2065 12.5691 15.0968L11.9973 13.1802H11.9973L11.4255 15.0968Z" fill="#13101E"/>
</svg>
