<svg width="24" height="24" viewBox="0 0 24 24" fill="none" xmlns="http://www.w3.org/2000/svg">
<g clip-path="url(#clip0_25_115)">
<path d="M2.2724 19.314C1.89353 19.7158 1.91216 20.3487 2.314 20.7276C2.71584 21.1065 3.34873 21.0878 3.7276 20.686L2.2724 19.314ZM20.2724 20.686C20.6513 21.0878 21.2842 21.1065 21.686 20.7276C22.0878 20.3487 22.1065 19.7158 21.7276 19.314L20.2724 20.686ZM15.5 7.5C15.5 9.433 13.933 11 12 11V13C15.0376 13 17.5 10.5376 17.5 7.5H15.5ZM12 11C10.067 11 8.5 9.433 8.5 7.5H6.5C6.5 10.5376 8.96243 13 12 13V11ZM8.5 7.5C8.5 5.567 10.067 4 12 4V2C8.96243 2 6.5 4.46243 6.5 7.5H8.5ZM12 4C13.933 4 15.5 5.567 15.5 7.5H17.5C17.5 4.46243 15.0376 2 12 2V4ZM3.7276 20.686C5.89332 18.389 8.8088 17 12 17V15C8.20523 15 4.77825 16.6562 2.2724 19.314L3.7276 20.686ZM12 17C15.1912 17 18.1067 18.389 20.2724 20.686L21.7276 19.314C19.2217 16.6562 15.7948 15 12 15V17Z" fill="#13101E"/>
</g>
<defs>
<clipPath id="clip0_25_115">
<rect width="24" height="24" fill="white"/>
</clipPath>
</defs>
</svg>
