<svg width="24" height="24" viewBox="0 0 24 24" fill="none" xmlns="http://www.w3.org/2000/svg">
<path d="M21 9.6666C21 9.11432 20.5523 8.6666 20 8.6666C19.4477 8.6666 19 9.11432 19 9.6666H21ZM5 9.6666C5 9.11432 4.55228 8.6666 4 8.6666C3.44772 8.6666 3 9.11432 3 9.6666H5ZM21 14.33C21 13.7777 20.5523 13.33 20 13.33C19.4477 13.33 19 13.7777 19 14.33H21ZM5 14.33C5 13.7777 4.55228 13.33 4 13.33C3.44772 13.33 3 13.7777 3 14.33H5ZM19 5C19 5.02553 18.9898 5.16958 18.7079 5.41948C18.4272 5.66834 17.964 5.93815 17.3057 6.18499C15.9966 6.67591 14.121 7 12 7V9C14.2973 9 16.4217 8.65251 18.008 8.05765C18.7974 7.7616 19.5058 7.38496 20.0347 6.91599C20.5625 6.44806 21 5.80289 21 5H19ZM12 7C9.87903 7 8.0034 6.67591 6.69427 6.18499C6.03602 5.93815 5.57279 5.66834 5.29209 5.41948C5.01022 5.16958 5 5.02553 5 5H3C3 5.80289 3.43749 6.44806 3.96527 6.91599C4.49422 7.38496 5.20256 7.7616 5.99202 8.05765C7.57833 8.65251 9.70269 9 12 9V7ZM5 5C5 4.97447 5.01022 4.83042 5.29209 4.58052C5.57279 4.33166 6.03602 4.06185 6.69427 3.81501C8.0034 3.32409 9.87903 3 12 3V1C9.70269 1 7.57833 1.34749 5.99202 1.94235C5.20256 2.2384 4.49422 2.61504 3.96527 3.08401C3.43749 3.55194 3 4.19711 3 5H5ZM12 3C14.121 3 15.9966 3.32409 17.3057 3.81501C17.964 4.06185 18.4272 4.33166 18.7079 4.58052C18.9898 4.83042 19 4.97447 19 5H21C21 4.19711 20.5625 3.55194 20.0347 3.08401C19.5058 2.61504 18.7974 2.2384 18.008 1.94235C16.4217 1.34749 14.2973 1 12 1V3ZM19 9.6666C19 9.69213 18.9898 9.83618 18.7079 10.0861C18.4272 10.3349 17.964 10.6047 17.3057 10.8516C15.9966 11.3425 14.121 11.6666 12 11.6666V13.6666C14.2973 13.6666 16.4217 13.3191 18.008 12.7242C18.7974 12.4282 19.5058 12.0516 20.0347 11.5826C20.5625 11.1147 21 10.4695 21 9.6666H19ZM12 11.6666C9.87903 11.6666 8.0034 11.3425 6.69427 10.8516C6.03602 10.6047 5.57279 10.3349 5.29209 10.0861C5.01022 9.83618 5 9.69213 5 9.6666H3C3 10.4695 3.43749 11.1147 3.96527 11.5826C4.49422 12.0516 5.20256 12.4282 5.99202 12.7242C7.57833 13.3191 9.70269 13.6666 12 13.6666V11.6666ZM19 14.33C19 14.3555 18.9898 14.4996 18.7079 14.7495C18.4272 14.9983 17.964 15.2681 17.3057 15.515C15.9966 16.0059 14.121 16.33 12 16.33V18.33C14.2973 18.33 16.4217 17.9825 18.008 17.3876C18.7974 17.0916 19.5058 16.715 20.0347 16.246C20.5625 15.7781 21 15.1329 21 14.33H19ZM12 16.33C9.87903 16.33 8.0034 16.0059 6.69427 15.515C6.03602 15.2681 5.57279 14.9983 5.29209 14.7495C5.01022 14.4996 5 14.3555 5 14.33H3C3 15.1329 3.43749 15.7781 3.96527 16.246C4.49422 16.715 5.20256 17.0916 5.99202 17.3876C7.57833 17.9825 9.70269 18.33 12 18.33V16.33ZM19 19C19 19.0255 18.9898 19.1696 18.7079 19.4195C18.4272 19.6683 17.964 19.9381 17.3057 20.185C15.9966 20.6759 14.121 21 12 21V23C14.2973 23 16.4217 22.6525 18.008 22.0576C18.7974 21.7616 19.5058 21.385 20.0347 20.916C20.5625 20.4481 21 19.8029 21 19H19ZM12 21C9.87903 21 8.0034 20.6759 6.69427 20.185C6.03602 19.9381 5.57279 19.6683 5.29209 19.4195C5.01022 19.1696 5 19.0255 5 19H3C3 19.8029 3.43749 20.4481 3.96527 20.916C4.49422 21.385 5.20256 21.7616 5.99202 22.0576C7.57833 22.6525 9.70269 23 12 23V21ZM5 19V5H3V19H5ZM21 19V5H19V19H21Z" fill="#13101E"/>
</svg>
